<svg width="69" height="24" viewBox="0 0 69 24" fill="none" xmlns="http://www.w3.org/2000/svg">
<path d="M6.336 18.128C5.22667 18.128 4.26667 17.8933 3.456 17.424C2.64533 16.9547 2.02133 16.2827 1.584 15.408C1.15733 14.5227 0.944 13.4827 0.944 12.288C0.944 11.0933 1.15733 10.064 1.584 9.2C2.02133 8.32533 2.64533 7.65333 3.456 7.184C4.26667 6.71467 5.22667 6.48 6.336 6.48C7.104 6.48 7.81867 6.59733 8.48 6.832C9.152 7.06667 9.72267 7.41333 10.192 7.872L9.616 9.104C9.08267 8.66667 8.55467 8.352 8.032 8.16C7.52 7.95733 6.96 7.856 6.352 7.856C5.17867 7.856 4.26667 8.24 3.616 9.008C2.96533 9.76533 2.64 10.8587 2.64 12.288C2.64 13.7173 2.96 14.8213 3.6 15.6C4.25067 16.368 5.168 16.752 6.352 16.752C6.96 16.752 7.52 16.656 8.032 16.464C8.55467 16.2613 9.08267 15.9413 9.616 15.504L10.192 16.736C9.72267 17.1947 9.152 17.5413 8.48 17.776C7.81867 18.0107 7.104 18.128 6.336 18.128ZM12.1055 18V6.224H13.7215V18H12.1055ZM19.5623 18.112C18.7623 18.112 18.0636 17.9413 17.4663 17.6C16.8796 17.2587 16.4263 16.7787 16.1063 16.16C15.7863 15.5307 15.6263 14.784 15.6263 13.92C15.6263 13.0773 15.7863 12.3413 16.1063 11.712C16.4263 11.0827 16.8796 10.5973 17.4663 10.256C18.0636 9.91467 18.7623 9.744 19.5623 9.744C20.3516 9.744 21.0396 9.91467 21.6263 10.256C22.2236 10.5973 22.6823 11.0827 23.0023 11.712C23.3329 12.3413 23.4983 13.0773 23.4983 13.92C23.4983 14.784 23.3329 15.5307 23.0023 16.16C22.6823 16.7787 22.2236 17.2587 21.6263 17.6C21.0396 17.9413 20.3516 18.112 19.5623 18.112ZM19.5623 16.832C20.2876 16.832 20.8476 16.5867 21.2423 16.096C21.6476 15.6053 21.8503 14.88 21.8503 13.92C21.8503 12.992 21.6476 12.2827 21.2423 11.792C20.8476 11.2907 20.2876 11.04 19.5623 11.04C18.8369 11.04 18.2663 11.2907 17.8503 11.792C17.4449 12.2827 17.2423 12.992 17.2423 13.92C17.2423 14.88 17.4396 15.6053 17.8343 16.096C18.2396 16.5867 18.8156 16.832 19.5623 16.832ZM28.2031 18.112C26.7951 18.112 25.6805 17.7707 24.8591 17.088L25.3551 15.92C25.7818 16.2507 26.2298 16.496 26.6991 16.656C27.1791 16.8053 27.6965 16.88 28.2511 16.88C28.8058 16.88 29.2271 16.7893 29.5151 16.608C29.8031 16.416 29.9471 16.1493 29.9471 15.808C29.9471 15.52 29.8458 15.296 29.6431 15.136C29.4511 14.9653 29.1205 14.8213 28.6511 14.704L27.2911 14.384C26.5871 14.2347 26.0485 13.9733 25.6751 13.6C25.3125 13.216 25.1311 12.7413 25.1311 12.176C25.1311 11.696 25.2645 11.2747 25.5311 10.912C25.7978 10.5493 26.1711 10.2667 26.6511 10.064C27.1311 9.85067 27.6911 9.744 28.3311 9.744C28.9071 9.744 29.4511 9.83467 29.9631 10.016C30.4751 10.1867 30.9178 10.4427 31.2911 10.784L30.7951 11.92C30.4005 11.6107 29.9951 11.3813 29.5791 11.232C29.1738 11.072 28.7578 10.992 28.3311 10.992C27.8085 10.992 27.4031 11.0933 27.1151 11.296C26.8271 11.488 26.6831 11.76 26.6831 12.112C26.6831 12.4 26.7685 12.6293 26.9391 12.8C27.1205 12.96 27.4191 13.088 27.8351 13.184L29.1951 13.52C29.9738 13.6907 30.5445 13.9627 30.9071 14.336C31.2698 14.7093 31.4511 15.1893 31.4511 15.776C31.4511 16.4907 31.1578 17.0613 30.5711 17.488C29.9951 17.904 29.2058 18.112 28.2031 18.112ZM40.0919 17.072C39.7292 17.392 39.2705 17.648 38.7159 17.84C38.1612 18.0213 37.5959 18.112 37.0199 18.112C36.1665 18.112 35.4305 17.9467 34.8119 17.616C34.1932 17.2853 33.7185 16.8053 33.3879 16.176C33.0572 15.5467 32.8919 14.8 32.8919 13.936C32.8919 13.104 33.0519 12.3733 33.3719 11.744C33.7025 11.1147 34.1559 10.624 34.7319 10.272C35.3079 9.92 35.9745 9.744 36.7319 9.744C37.4572 9.744 38.0812 9.904 38.6039 10.224C39.1265 10.544 39.5265 11.0027 39.8039 11.6C40.0919 12.1867 40.2359 12.896 40.2359 13.728V14H34.2999L34.3159 13.04H39.2919L38.8279 13.616C38.8385 12.752 38.6679 12.0907 38.3159 11.632C37.9639 11.1733 37.4465 10.944 36.7639 10.944C36.0492 10.944 35.4892 11.2 35.0839 11.712C34.6785 12.2133 34.4759 12.9173 34.4759 13.824C34.4759 14.8373 34.6945 15.5947 35.1319 16.096C35.5692 16.5867 36.2092 16.832 37.0519 16.832C37.5105 16.832 37.9532 16.7573 38.3799 16.608C38.8065 16.4587 39.2119 16.2293 39.5959 15.92L40.0919 17.072Z" fill="#0D1F3B"/>
<g clip-path="url(#clip0)">
<path d="M48.4697 4.59095L64.3796 20.5008C64.6723 20.7936 65.1475 20.7935 65.4402 20.5008C65.733 20.2081 65.7329 19.7329 65.4402 19.4402L49.5303 3.53032C49.2376 3.23756 48.7624 3.23761 48.4697 3.53032C48.177 3.82303 48.177 4.29824 48.4697 4.59095Z" fill="#1FBD97"/>
<path d="M64.4402 3.5598L48.5303 19.4697C48.2376 19.7624 48.2376 20.2376 48.5303 20.5303C48.823 20.823 49.2982 20.823 49.5909 20.5303L65.5008 4.62043C65.7936 4.32768 65.7935 3.85251 65.5008 3.5598C65.2081 3.26709 64.733 3.26704 64.4402 3.5598Z" fill="#1FBD97"/>
</g>
<defs>
<clipPath id="clip0">
<rect width="24" height="24" fill="white" transform="translate(45)"/>
</clipPath>
</defs>
</svg>
